<?xml version="1.0" encoding="utf-8"?>

<!DOCTYPE svg PUBLIC "-//W3C//DTD SVG 1.1//EN" "http://www.w3.org/Graphics/SVG/1.1/DTD/svg11.dtd">
<!-- Uploaded to: SVG Repo, www.svgrepo.com, Generator: SVG Repo Mixer Tools -->
<svg version="1.1" id="_x32_" xmlns="http://www.w3.org/2000/svg" xmlns:xlink="http://www.w3.org/1999/xlink" 
	 viewBox="0 0 512 512"  xml:space="preserve">
<style type="text/css">
	.st0{fill:#000000;}
</style>
<g>
	<path class="st0" d="M259.122,277.312c6.042-4.619,14.559-9.533,24.351-13.986c17.626-8.093,39.243-15.003,58.458-19.751
		c9.607-2.374,18.642-4.231,26.236-5.46c7.556-1.247,13.819-1.828,17.145-1.81h0.092l6.818,0.166l4.601-5.034
		c16.018-17.515,31.667-27.104,43.104-32.37c5.709-2.633,10.365-4.176,13.45-5.034c1.552-0.425,2.697-0.684,3.399-0.822
		c0.333-0.074,0.573-0.112,0.684-0.139l21.266-2.984l-10.217-18.956c-16.37-30.319-44.138-62.356-82.55-87.178
		C347.566,59.16,298.365,41.802,240.185,41.82c-6.633,0-13.414,0.314-20.287,0.776l-2.494-16.037l-18.514,2.9l2.513,16
		c-60.49,14.984-106.198,45.848-138.235,81.682c-16.758,18.725-29.838,38.78-39.612,58.688
		c-9.756,19.908-16.204,39.676-19.622,57.986L0,264.989l21.1-3.64c0.074-0.009,2.623-0.397,7.132-0.397
		c11.178,0.018,34.217,2.291,62.392,18.392l5.82,3.316l6.338-2.106c2.253-0.748,5.782-1.654,10.106-2.494
		c13.063-2.568,33.331-4.629,55.058-4.61c21.931-0.027,45.561,2.106,65.183,7.289l27.935,178.485H38.947v26.216H510.91v-26.216
		H287.594L259.122,277.312z M369.7,109.137c27.177,17.506,48.351,39.335,62.798,60.48c-1.625,0.674-3.325,1.405-5.118,2.227
		c-11.011,5.062-24.609,13.118-38.762,25.654c-2.735-4.305-5.894-9.062-9.479-14.19c-14.393-20.545-35.363-46.753-61.617-71.03
		c-15.427-14.245-32.683-27.824-51.528-39.16C306.79,77.256,341.45,90.929,369.7,109.137z M92.73,244.619
		c-0.167,0.628-0.296,1.229-0.444,1.839c-21.858-10.3-40.961-14.005-54.54-15.086c3.104-10.42,7.316-21.339,12.711-32.351
		c12.915-26.318,32.554-53.145,59.769-75.695c17.126-14.189,37.247-26.717,60.71-36.462c-6.78,7.889-13.08,16.12-18.919,24.554
		c-22.337,32.378-37.893,67.547-48.018,96.203C98.92,221.958,95.224,234.66,92.73,244.619z M167.944,243.483
		c-15.723,0-30.595,0.961-43.344,2.475c-4.766,0.574-9.238,1.22-13.377,1.94c1.331-5.192,2.975-11.16,5.026-17.755
		c7.095-22.929,18.661-53.173,35.4-82.771c14.116-25.008,31.963-49.451,53.635-68.869l26.79,171.205
		C211.16,245.164,188.84,243.51,167.944,243.483z M250.587,246.9L223.354,72.933c20.933,8.065,40.702,19.972,58.679,33.83
		c29.358,22.596,53.986,50.198,71.649,73.422c7.686,10.115,14.06,19.4,18.938,27.039c-0.37,0.046-0.74,0.083-1.128,0.13
		c-8.998,1.136-19.824,3.131-31.649,5.903c-17.718,4.148-37.542,10.004-55.982,17.33c-9.219,3.668-18.069,7.705-26.198,12.158
		C255.224,244.093,252.878,245.487,250.587,246.9z"/>
	<rect x="343.446" y="380.822" class="st0" width="49.404" height="18.725"/>
	<rect x="462.596" y="380.822" class="st0" width="49.404" height="18.725"/>
	<rect x="401.57" y="309.395" class="st0" width="49.405" height="18.725"/>
	<polygon class="st0" points="143.686,380.924 143.316,399.658 192.721,400.638 193.09,381.912 	"/>
	<polygon class="st0" points="84.102,308.305 83.732,327.03 133.118,328.01 133.506,309.284 	"/>
</g>
</svg>