<?xml version="1.0" encoding="iso-8859-1"?>
<!-- Uploaded to: SVG Repo, www.svgrepo.com, Generator: SVG Repo Mixer Tools -->
<svg fill="#000000" height="800px" width="800px" version="1.1" id="Capa_1" xmlns="http://www.w3.org/2000/svg" xmlns:xlink="http://www.w3.org/1999/xlink" 
	 viewBox="0 0 463 463" xml:space="preserve">
<g>
	<path d="M55.5,232h-8c-4.142,0-7.5,3.358-7.5,7.5s3.358,7.5,7.5,7.5h8c4.142,0,7.5-3.358,7.5-7.5S59.642,232,55.5,232z"/>
	<path d="M87.5,232h-8c-4.142,0-7.5,3.358-7.5,7.5s3.358,7.5,7.5,7.5h8c4.142,0,7.5-3.358,7.5-7.5S91.642,232,87.5,232z"/>
	<path d="M55.5,256h-8c-4.142,0-7.5,3.358-7.5,7.5s3.358,7.5,7.5,7.5h8c4.142,0,7.5-3.358,7.5-7.5S59.642,256,55.5,256z"/>
	<path d="M87.5,256h-8c-4.142,0-7.5,3.358-7.5,7.5s3.358,7.5,7.5,7.5h8c4.142,0,7.5-3.358,7.5-7.5S91.642,256,87.5,256z"/>
	<path d="M455.427,336c-9.769,0-15.082,2.657-19.351,4.792c-2.853,1.427-5.105,2.548-8.8,2.995l34.48-52.151
		c1.522-2.303,1.657-5.256,0.35-7.688c-1.308-2.432-3.845-3.948-6.606-3.948h-96c-4.142,0-7.5,3.358-7.5,7.5
		c0,9.098-7.402,16.5-16.5,16.5H335v-72.5c0-4.142-3.358-7.5-7.5-7.5h-32h-32h-56h-56c-4.142,0-7.5,3.358-7.5,7.5v48V304h-0.5
		c-9.098,0-16.5-7.402-16.5-16.5c0-4.142-3.358-7.5-7.5-7.5H119v-64.5c0-4.142-3.358-7.5-7.5-7.5H103v-73h16.5
		c4.142,0,7.5-3.358,7.5-7.5s-3.358-7.5-7.5-7.5H103v-8.5c0-4.142-3.358-7.5-7.5-7.5s-7.5,3.358-7.5,7.5v8.5h-8.5
		c-4.142,0-7.5,3.358-7.5,7.5s3.358,7.5,7.5,7.5H88v73H23.5c-4.142,0-7.5,3.358-7.5,7.5V280H7.5c-2.366,0-4.593,1.116-6.009,3.012
		c-1.416,1.895-1.854,4.347-1.183,6.616l13.857,46.842C12.195,336.175,9.995,336,7.5,336c-4.142,0-7.5,3.358-7.5,7.5
		s3.358,7.5,7.5,7.5c6.219,0,8.906,1.345,12.625,3.207c4.266,2.136,9.576,4.793,19.339,4.793c9.77,0,15.083-2.657,19.352-4.792
		C62.541,352.346,65.232,351,71.46,351c6.222,0,8.911,1.345,12.632,3.207c4.267,2.136,9.578,4.793,19.344,4.793
		c9.769,0,15.082-2.657,19.351-4.792c3.724-1.862,6.414-3.208,12.641-3.208c6.231,0,8.923,1.346,12.649,3.208
		c4.27,2.135,9.584,4.792,19.356,4.792c9.772,0,15.086-2.657,19.356-4.792c3.726-1.863,6.418-3.208,12.649-3.208
		c6.231,0,8.923,1.346,12.649,3.208c4.27,2.135,9.585,4.792,19.356,4.792c9.77,0,15.083-2.657,19.353-4.792
		c3.724-1.862,6.416-3.208,12.644-3.208c6.23,0,8.921,1.346,12.646,3.208c4.27,2.135,9.584,4.792,19.354,4.792
		c9.772,0,15.087-2.657,19.358-4.792c3.727-1.863,6.419-3.208,12.701-3.208c6.219,0,8.906,1.345,12.625,3.207
		c4.266,2.136,9.576,4.793,19.339,4.793c9.77,0,15.083-2.657,19.352-4.792c3.724-1.862,6.415-3.208,12.643-3.208
		c6.222,0,8.911,1.345,12.632,3.207c4.267,2.136,9.578,4.793,19.344,4.793c9.769,0,15.082-2.657,19.351-4.792
		c3.724-1.862,6.414-3.208,12.641-3.208c4.142,0,7.5-3.358,7.5-7.5S459.569,336,455.427,336z M320,304h-17v-65h17V304z M288,304h-17
		v-24.5V239h17V304z M215,304v-17h41v17H215z M256,272h-41v-33h41V272z M159,239h41v33h-41V239z M159,287h41v17h-41V287z M31,223h73
		v57H31V223z M391.46,336c-9.77,0-15.083,2.657-19.352,4.792c-3.724,1.862-6.415,3.208-12.643,3.208
		c-6.219,0-8.906-1.345-12.625-3.207c-4.266-2.136-9.576-4.793-19.389-4.793c-9.772,0-15.087,2.657-19.357,4.792
		c-3.727,1.863-6.419,3.208-12.652,3.208c-6.23,0-8.921-1.346-12.646-3.208c-4.27-2.135-9.584-4.792-19.354-4.792
		c-9.77,0-15.083,2.657-19.353,4.792c-3.725,1.862-6.416,3.208-12.644,3.208c-6.231,0-8.923-1.346-12.649-3.208
		c-4.27-2.135-9.585-4.792-19.356-4.792s-15.086,2.657-19.356,4.792c-3.726,1.863-6.418,3.208-12.649,3.208
		c-6.231,0-8.923-1.346-12.649-3.208c-4.27-2.135-9.584-4.792-19.356-4.792c-9.769,0-15.082,2.657-19.351,4.792
		c-3.724,1.862-6.414,3.208-12.641,3.208c-6.222,0-8.911-1.345-12.632-3.207C86.537,338.657,81.226,336,71.46,336
		c-9.77,0-15.083,2.657-19.352,4.792C48.384,342.654,45.693,344,39.465,344c-3.382,0-5.716-0.4-7.743-1.062L17.54,295h95.362
		c3.373,13.76,15.812,24,30.598,24h8h56h56h32h32h8c14.786,0,27.225-10.24,30.598-24h75.453l-30.393,45.969
		c-0.118-0.059-0.234-0.117-0.354-0.177C406.537,338.657,401.226,336,391.46,336z"/>
</g>
</svg>