<?xml version="1.0" standalone="no"?>
<!DOCTYPE svg PUBLIC "-//W3C//DTD SVG 20010904//EN"
 "http://www.w3.org/TR/2001/REC-SVG-20010904/DTD/svg10.dtd">
<svg version="1.0" xmlns="http://www.w3.org/2000/svg"
 width="1024.000000pt" height="1024.000000pt" viewBox="0 0 1024.000000 1024.000000"
 preserveAspectRatio="xMidYMid meet">

<g transform="translate(0.000000,1024.000000) scale(0.100000,-0.100000)"
fill="#000000" stroke="none">
<path d="M7163 8898 c-376 -489 -543 -739 -689 -1031 -134 -266 -173 -405
-181 -637 -4 -130 -2 -171 15 -251 86 -415 409 -734 836 -825 97 -21 289 -21
399 0 609 116 981 694 841 1306 -65 287 -265 661 -582 1090 -208 282 -436 570
-451 570 -9 0 -90 -96 -188 -222z m309 -390 c300 -398 527 -778 601 -1009 59
-182 62 -366 8 -528 -45 -135 -99 -222 -200 -321 -97 -96 -167 -141 -280 -181
-257 -91 -540 -42 -747 129 -117 96 -208 239 -251 392 -27 98 -24 327 5 436
62 230 230 539 490 903 117 164 244 330 253 331 3 0 57 -69 121 -152z"/>
<path d="M6736 7229 c-22 -17 -26 -28 -26 -72 1 -176 134 -390 314 -502 86
-53 207 -95 275 -95 42 0 53 4 70 26 45 57 16 97 -88 124 -117 30 -197 74
-277 154 -82 82 -124 161 -148 276 -21 105 -62 135 -120 89z"/>
<path d="M2130 8470 c-39 -10 -80 -51 -80 -82 0 -19 -80 -1644 -100 -2033 -5
-104 -10 -206 -10 -225 0 -34 -4 -37 -107 -100 -60 -35 -118 -74 -130 -87
l-23 -22 0 -1015 0 -1015 -151 -3 -151 -3 -34 -37 c-32 -35 -34 -42 -34 -105
0 -86 22 -127 77 -143 27 -8 1001 -10 3466 -8 l3429 3 29 33 c27 30 29 38 29
113 0 79 -1 82 -34 115 l-34 34 -151 0 -151 0 0 724 c0 438 -4 744 -10 776
-32 171 -159 297 -340 341 -75 17 -337 14 -413 -6 -87 -22 -147 -57 -203 -117
-103 -109 -124 -182 -124 -435 l0 -183 -85 0 -85 0 0 188 c0 198 -10 263 -51
343 -49 96 -152 177 -272 214 l-72 22 -6 174 c-4 125 -10 186 -22 217 -32 84
-94 156 -177 207 -97 59 -134 64 -442 67 l-278 3 0 350 c0 333 -1 352 -20 383
-39 64 -15 62 -821 62 l-732 0 -349 -211 c-192 -116 -351 -209 -353 -207 -1 1
-10 163 -19 358 -53 1160 -58 1245 -73 1268 -31 50 -53 52 -470 51 -213 -1
-404 -5 -423 -9z m624 -372 c5 -64 44 -897 62 -1333 l7 -150 -288 -168 c-159
-92 -289 -166 -291 -164 -2 1 17 412 41 912 25 501 45 925 45 943 l0 32 209 0
209 0 6 -72z m2336 -2688 l0 -1520 -1555 0 -1555 0 0 944 0 943 598 356 c328
195 764 455 967 576 l370 221 588 0 587 0 0 -1520z m859 707 c52 -26 66 -69
69 -222 l4 -141 -63 -13 c-128 -26 -264 -123 -322 -229 -56 -103 -57 -113 -57
-899 l0 -723 -95 0 -95 0 0 1120 0 1120 268 0 c192 0 274 -4 291 -13z m418
-693 c15 -11 34 -32 40 -45 10 -18 13 -195 13 -756 l0 -733 -275 0 -276 0 3
723 c3 782 1 750 57 801 32 29 75 35 248 33 147 -2 164 -4 190 -23z m1243 1
c73 -43 70 -5 70 -812 l0 -723 -255 0 -255 0 0 720 c0 766 0 760 48 803 34 30
71 36 217 34 120 -2 145 -5 175 -22z m-730 -1130 l0 -405 -85 0 -85 0 0 405 0
405 85 0 85 0 0 -405z"/>
<path d="M2675 3233 c-133 -19 -233 -67 -400 -194 -142 -108 -213 -145 -309
-166 -124 -26 -206 -8 -390 83 -155 77 -190 82 -241 31 -55 -55 -59 -147 -10
-205 23 -28 147 -108 231 -150 81 -41 162 -56 309 -56 120 -1 151 2 215 22
109 34 209 90 340 188 63 48 144 101 180 118 62 30 71 31 190 31 119 0 128 -1
190 -31 36 -17 114 -67 174 -111 240 -177 357 -222 572 -223 191 0 338 57 546
212 67 50 152 105 188 122 61 29 71 31 186 31 119 0 121 0 195 -37 40 -21 106
-63 144 -94 209 -169 373 -234 592 -234 194 1 329 53 533 206 189 142 242 164
390 164 133 0 207 -31 350 -145 131 -105 263 -179 370 -206 85 -21 309 -18
390 5 108 31 199 80 325 176 140 107 172 125 260 145 92 22 114 34 136 77 52
102 -6 208 -114 208 -63 0 -180 -30 -252 -64 -38 -18 -128 -76 -200 -129 -71
-53 -153 -105 -182 -116 -117 -45 -262 -36 -381 25 -37 18 -119 72 -182 120
-188 141 -311 191 -501 201 -197 11 -350 -45 -559 -203 -63 -48 -146 -102
-185 -120 -182 -87 -376 -57 -555 85 -231 183 -407 251 -620 238 -181 -12
-293 -58 -483 -201 -69 -51 -150 -106 -182 -120 -59 -28 -168 -56 -220 -56
-51 0 -161 27 -217 54 -29 14 -107 66 -173 116 -141 107 -269 173 -377 194
-71 15 -201 19 -273 9z"/>
<path d="M2640 2395 c-133 -28 -219 -73 -385 -204 -148 -117 -253 -161 -380
-161 -88 0 -154 21 -298 95 -79 40 -140 65 -160 65 -95 0 -155 -113 -110 -207
36 -76 241 -199 378 -228 90 -19 270 -19 359 0 120 25 225 85 421 236 139 108
251 142 390 120 97 -16 150 -44 300 -155 232 -171 347 -216 555 -216 208 0
364 59 572 215 134 101 210 140 301 155 134 21 253 -17 396 -127 162 -125 232
-167 337 -203 95 -33 105 -34 249 -35 130 0 160 3 225 23 106 33 199 84 317
174 169 128 212 150 325 169 76 12 175 -3 255 -41 34 -15 118 -71 187 -124
219 -166 350 -213 575 -203 191 8 297 49 481 185 138 102 181 127 260 147 81
21 113 37 133 69 46 69 22 177 -46 209 -96 46 -280 -12 -454 -141 -129 -97
-184 -130 -247 -152 -123 -42 -255 -35 -371 20 -33 16 -114 70 -180 120 -206
158 -330 205 -540 204 -120 0 -137 -2 -223 -32 -114 -39 -150 -60 -305 -175
-67 -49 -150 -103 -185 -119 -129 -59 -286 -60 -410 -1 -30 14 -111 68 -178
120 -215 163 -335 208 -549 207 -120 0 -137 -2 -224 -32 -108 -38 -175 -75
-316 -181 -177 -132 -300 -172 -454 -151 -103 14 -190 57 -331 164 -123 94
-239 156 -335 182 -84 22 -254 27 -335 9z"/>
</g>
</svg>
