<?xml version="1.0" standalone="no"?>
<!DOCTYPE svg PUBLIC "-//W3C//DTD SVG 20010904//EN"
 "http://www.w3.org/TR/2001/REC-SVG-20010904/DTD/svg10.dtd">
<svg version="1.0" xmlns="http://www.w3.org/2000/svg"
 width="512.000000pt" height="512.000000pt" viewBox="0 0 512.000000 512.000000"
 preserveAspectRatio="xMidYMid meet">

<g transform="translate(0.000000,512.000000) scale(0.100000,-0.100000)"
fill="#000000" stroke="none">
<path d="M2 2863 l3 -2258 23 -70 c86 -255 261 -428 512 -507 l75 -23 1945 0
1945 0 75 23 c250 78 425 252 511 507 l24 70 3 2258 2 2257 -2560 0 -2560 0 2
-2257z m998 2083 c0 -2 -76 -70 -169 -150 l-170 -146 -153 131 c-84 72 -162
139 -173 150 -19 19 -14 19 323 19 188 0 342 -2 342 -4z m526 -192 c126 -108
233 -200 237 -204 10 -9 -464 -420 -483 -420 -7 0 -120 93 -252 206 l-240 206
43 36 c24 21 131 112 239 204 107 93 202 168 211 168 9 0 119 -88 245 -196z
m699 177 c-11 -11 -89 -78 -173 -150 l-153 -130 -152 130 c-84 72 -161 140
-172 150 -19 19 -13 19 325 19 339 0 344 0 325 -19z m627 -181 c128 -110 234
-203 235 -207 1 -5 -104 -98 -233 -208 l-235 -200 -55 -3 -55 -3 -240 207
c-133 113 -237 210 -232 214 4 4 111 96 237 204 l229 196 58 0 57 0 234 -200z
m708 196 c0 -2 -76 -70 -169 -150 l-170 -146 -153 131 c-84 72 -162 139 -173
150 -19 19 -14 19 323 19 188 0 342 -2 342 -4z m526 -192 c126 -108 233 -200
237 -204 10 -9 -464 -420 -483 -420 -7 0 -120 93 -252 206 l-240 206 43 36
c24 21 131 112 239 204 107 93 202 168 211 168 9 0 119 -88 245 -196z m699
177 c-11 -11 -89 -78 -173 -150 l-153 -130 -152 130 c-84 72 -161 140 -172
150 -19 19 -13 19 325 19 339 0 344 0 325 -19z m-4412 -250 c86 -74 157 -137
156 -140 0 -3 -81 -75 -180 -159 l-179 -153 0 311 0 311 23 -18 c13 -10 94
-78 180 -152z m4573 -439 c-3 -2 -84 64 -181 148 -97 84 -174 154 -172 157 3
2 83 71 178 153 l174 148 3 -300 c1 -166 0 -303 -2 -306z m-4116 47 c91 -78
169 -145 175 -150 5 -5 -135 -9 -344 -9 l-352 0 173 150 c95 82 175 149 178
149 3 1 79 -62 170 -140z m1248 -9 l170 -145 -174 -3 c-96 -1 -252 -1 -348 0
l-174 3 172 147 c94 81 174 146 178 145 4 -1 83 -67 176 -147z m1312 9 c91
-78 169 -145 175 -150 5 -5 -135 -9 -344 -9 l-352 0 173 150 c95 82 175 149
178 149 3 1 79 -62 170 -140z m1248 -9 l170 -145 -174 -3 c-96 -1 -252 -1
-348 0 l-174 3 172 147 c94 81 174 146 178 145 4 -1 83 -67 176 -147z m310
-1992 c-3 -1871 3 -1706 -75 -1836 -69 -114 -175 -203 -302 -254 l-56 -23
-1920 -3 c-1418 -2 -1934 0 -1975 8 -204 43 -381 213 -434 417 -14 54 -16 242
-16 1712 l0 1651 2390 0 2390 0 -2 -1672z"/>
<path d="M1405 3785 c-127 -47 -196 -192 -151 -318 35 -96 128 -161 231 -161
106 0 205 69 233 163 16 52 15 134 -2 175 -20 47 -73 104 -119 128 -52 26
-140 32 -192 13z m140 -180 c29 -28 31 -54 10 -94 -33 -65 -122 -51 -148 22
-8 22 9 68 30 85 28 21 81 15 108 -13z"/>
<path d="M3029 3523 c-155 -79 -184 -278 -57 -400 70 -68 187 -84 277 -38 88
44 133 119 133 221 1 182 -190 299 -353 217z m169 -169 c37 -41 26 -95 -25
-122 -69 -37 -136 35 -107 113 9 22 63 46 89 39 11 -3 30 -17 43 -30z"/>
<path d="M769 3380 c-95 -16 -185 -82 -235 -172 -27 -49 -29 -61 -29 -153 0
-92 2 -104 29 -153 34 -60 85 -111 148 -144 37 -20 58 -23 143 -23 85 0 106 3
143 23 162 86 230 270 158 427 -65 144 -205 220 -357 195z m128 -176 c83 -40
117 -149 71 -229 -26 -45 -93 -85 -143 -85 -49 1 -110 34 -135 75 -87 141 58
309 207 239z"/>
<path d="M4485 2801 c-50 -13 -90 -38 -127 -79 -83 -92 -83 -232 0 -324 52
-58 104 -81 182 -82 217 -2 331 257 181 412 -20 21 -54 46 -74 55 -43 21 -119
29 -162 18z m112 -183 c30 -28 31 -83 1 -115 -47 -50 -138 -12 -138 57 0 68
87 105 137 58z"/>
<path d="M2415 2700 c-194 -22 -403 -89 -551 -178 -74 -45 -87 -50 -165 -56
-282 -24 -607 -131 -844 -279 -303 -188 -540 -479 -522 -639 8 -62 63 -169
135 -259 266 -335 769 -585 1239 -616 l98 -6 50 -47 c121 -113 228 -181 362
-229 97 -36 241 -61 345 -61 l78 0 0 233 0 233 66 21 66 22 51 -40 c62 -49
143 -91 223 -115 82 -25 266 -25 349 0 256 77 422 287 401 508 l-6 68 88 44
88 44 159 -114 c87 -62 179 -122 204 -133 70 -29 137 -34 206 -16 103 27 177
88 224 185 26 55 26 56 26 300 0 230 -1 248 -22 292 -29 63 -96 134 -158 166
-44 24 -61 27 -150 27 -120 0 -118 1 -333 -153 l-154 -110 -146 70 c-81 39
-149 72 -151 74 -2 2 32 41 75 87 115 122 201 278 238 430 l6 27 -107 0 c-184
0 -419 42 -793 141 -102 26 -223 55 -270 63 -112 19 -305 27 -405 16z m420
-185 c39 -9 153 -38 255 -65 215 -57 434 -103 572 -120 l97 -12 -22 -40 c-34
-62 -126 -166 -189 -216 l-57 -44 -153 65 c-449 193 -815 309 -1173 372 -38 7
-39 8 -15 17 47 18 167 48 226 58 86 13 375 4 459 -15z m-716 -220 c314 -45
780 -198 1282 -420 198 -88 585 -275 612 -297 17 -13 -4 -25 -230 -135 -670
-328 -1255 -539 -1654 -598 -180 -26 -444 -17 -622 21 -28 6 -28 6 60 97 49
51 110 122 137 160 26 37 51 67 54 67 4 -1 34 -7 67 -15 78 -19 243 -19 324 0
293 69 417 303 256 482 -76 86 -204 140 -371 158 l-61 7 5 79 5 79 -82 0 c-58
0 -81 -4 -81 -12 -1 -53 -24 -217 -39 -283 -69 -289 -241 -559 -466 -730 -32
-25 -37 -26 -72 -15 -120 39 -423 211 -423 241 0 6 15 29 34 51 66 76 136 241
136 317 0 21 -4 22 -81 19 l-82 -3 -13 -52 c-17 -67 -47 -127 -91 -181 l-35
-43 -30 28 c-82 77 -158 200 -158 255 0 56 66 154 180 268 241 243 578 403
955 454 137 19 355 19 484 1z m2411 -417 c25 -13 55 -38 67 -57 22 -33 23 -42
23 -251 0 -209 -1 -218 -22 -250 -34 -49 -71 -72 -126 -78 -35 -3 -58 1 -84
14 -44 24 -247 167 -248 175 0 3 52 34 115 68 63 34 115 66 115 69 0 4 -52 36
-115 71 -63 34 -113 67 -110 71 9 14 230 169 256 179 40 16 82 12 129 -11z
m-2415 -243 c116 -31 195 -91 195 -149 0 -37 -56 -95 -118 -123 -71 -31 -181
-48 -262 -39 -96 10 -96 10 -61 97 16 41 40 109 52 152 l23 77 56 0 c31 0 82
-7 115 -15z m1515 -497 c-1 -85 -60 -179 -151 -238 -85 -55 -165 -74 -287 -68
-85 4 -109 9 -168 37 l-69 33 100 37 c118 45 379 155 485 205 41 19 78 35 83
35 4 1 7 -18 7 -41z m-1150 -513 c0 -112 -2 -125 -17 -125 -36 0 -180 40 -236
65 -62 27 -172 94 -165 100 2 2 62 13 133 25 72 11 162 29 200 39 39 11 73 20
78 20 4 1 7 -55 7 -124z"/>
<path d="M1140 2044 c-45 -20 -97 -69 -121 -117 -78 -151 24 -336 193 -354
104 -10 193 37 243 129 67 122 16 278 -110 337 -54 25 -153 28 -205 5z m139
-159 c87 -45 24 -176 -69 -144 -55 20 -69 91 -25 134 28 29 54 31 94 10z"/>
<path d="M491 2627 c-48 -19 -108 -72 -133 -120 -31 -59 -31 -165 -1 -223 90
-170 331 -179 429 -16 52 86 51 172 -2 259 -43 69 -109 107 -193 110 -36 1
-81 -3 -100 -10z m140 -176 c38 -39 38 -74 -1 -113 -26 -25 -36 -29 -63 -24
-78 15 -93 116 -22 154 33 18 55 14 86 -17z"/>
</g>
</svg>
