<?xml version="1.0" standalone="no"?>
<!DOCTYPE svg PUBLIC "-//W3C//DTD SVG 20010904//EN"
 "http://www.w3.org/TR/2001/REC-SVG-20010904/DTD/svg10.dtd">
<svg version="1.0" xmlns="http://www.w3.org/2000/svg"
 width="683.000000pt" height="683.000000pt" viewBox="0 0 683.000000 683.000000"
 preserveAspectRatio="xMidYMid meet">

<g transform="translate(0.000000,683.000000) scale(0.100000,-0.100000)"
fill="#000000" stroke="none">
<path d="M3 3816 l6 -3014 37 -99 c101 -271 272 -470 504 -588 30 -16 106 -45
169 -67 l114 -38 2578 0 2579 0 107 36 c356 119 561 326 692 697 l31 89 0
2999 0 2999 -3412 0 -3411 0 6 -3014z m1277 2733 c-30 -28 -132 -117 -226
-199 l-172 -148 -221 190 c-121 104 -219 194 -215 199 3 5 192 9 447 9 l442
-1 -55 -50z m549 -39 c61 -49 205 -169 318 -267 l207 -177 -80 -74 c-154 -145
-551 -482 -567 -482 -11 0 -155 118 -406 334 l-251 214 227 194 c279 237 415
347 429 348 6 0 61 -40 123 -90z m1134 75 c2 -10 -417 -375 -432 -375 -4 0
-106 84 -225 187 -153 131 -213 189 -204 194 19 13 857 6 861 -6z m804 -222
c151 -131 292 -253 312 -270 l36 -33 -55 -52 c-45 -42 -191 -168 -552 -475 -9
-8 -49 -17 -90 -20 l-74 -6 -194 168 c-305 262 -431 378 -428 391 2 7 140 130
307 273 l304 261 80 0 79 0 275 -237z m923 186 c-30 -28 -132 -117 -227 -199
l-171 -149 -221 190 c-122 104 -219 194 -216 199 4 6 178 10 448 10 l442 -1
-55 -50z m549 -39 c61 -49 204 -169 317 -266 l206 -176 -29 -30 c-74 -78 -598
-528 -615 -528 -12 0 -148 111 -407 334 l-251 214 227 194 c279 237 415 347
429 348 6 0 61 -40 123 -90z m1134 75 c2 -10 -417 -375 -432 -375 -4 0 -106
84 -225 187 -153 131 -213 189 -204 194 19 13 857 6 861 -6z m-5946 -282 c98
-84 201 -172 228 -197 l50 -44 -20 -22 c-21 -24 -421 -371 -442 -384 -10 -6
-13 77 -13 399 0 256 4 405 10 403 5 -1 89 -71 187 -155z m6161 -443 l-3 -200
-70 56 c-88 70 -331 282 -368 321 l-27 29 232 199 233 199 3 -202 c1 -111 1
-292 0 -402z m-5649 3 c25 -21 125 -106 223 -189 l176 -151 -75 -7 c-42 -3
-250 -6 -462 -6 l-386 0 58 51 c203 180 394 339 406 339 8 0 35 -17 60 -37z
m1829 -153 l219 -185 -66 -6 c-36 -4 -210 -7 -386 -7 -176 0 -351 3 -388 7
l-69 6 158 135 c217 185 287 241 301 238 7 -2 111 -86 231 -188z m1581 153
c25 -21 125 -106 223 -189 l176 -151 -75 -7 c-42 -3 -250 -6 -462 -6 l-386 0
58 51 c203 180 394 339 406 339 8 0 35 -17 60 -37z m1690 -35 c47 -40 147
-125 222 -189 l136 -116 -90 -7 c-111 -8 -657 -6 -750 3 l-69 6 158 135 c191
163 286 240 298 240 5 0 47 -33 95 -72z m551 -2545 c0 -1978 -6 -2438 -33
-2538 -16 -57 -108 -205 -169 -271 -60 -65 -164 -139 -264 -187 l-89 -42
-2545 -3 c-1592 -1 -2578 1 -2633 7 -258 29 -509 250 -603 531 -18 53 -19 150
-22 2278 l-3 2222 3181 0 3180 0 0 -1997z"/>
<path d="M3410 4255 c-517 -71 -1064 -353 -1488 -767 -85 -83 -96 -90 -114
-79 -11 7 -183 135 -381 285 -199 150 -372 278 -384 284 -31 17 -99 15 -138
-4 -36 -17 -60 -47 -70 -87 -4 -15 35 -213 101 -512 l107 -487 -107 -488 c-69
-314 -105 -497 -101 -512 21 -70 90 -114 162 -103 45 7 170 96 702 503 l123
95 72 -70 c327 -319 714 -562 1101 -692 556 -186 1085 -146 1640 124 484 236
945 640 1133 993 41 76 47 95 47 148 0 53 -6 73 -42 145 -24 46 -72 122 -107
169 -372 493 -1002 903 -1576 1025 -210 45 -483 57 -680 30z m1129 -1198 c47
-31 91 -110 91 -162 0 -58 -22 -110 -64 -151 -130 -130 -346 -40 -346 144 0
85 37 145 115 187 48 26 152 17 204 -18z"/>
</g>
</svg>
