<?xml version="1.0" standalone="no"?>
<!DOCTYPE svg PUBLIC "-//W3C//DTD SVG 20010904//EN" "http://www.w3.org/TR/2001/REC-SVG-20010904/DTD/svg10.dtd">
<svg xmlns="http://www.w3.org/2000/svg" version="1.0" width="512.000000pt" height="512.000000pt" viewBox="0 0 512.000000 512.000000" preserveAspectRatio="xMidYMid meet">
<metadata>
Created by potrace 1.16, written by Peter Selinger 2001-2019
<meta name="Producer" content="Online-Convert"/></metadata>
<g transform="translate(0.000000,512.000000) scale(0.100000,-0.100000)" fill="#000000" stroke="none">
<path d="M1490 5109 c-821 -64 -1364 -235 -1471 -464 -18 -38 -19 -85 -19 -1056 l0 -1016 30 -61 c74 -147 293 -279 620 -373 127 -36 315 -77 440 -96 l55 -8 5 -725 5 -725 24 -45 c58 -111 146 -184 316 -266 288 -138 707 -228 1231 -265 223 -15 814 -7 1019 15 634 68 1088 215 1278 415 106 111 97 5 97 1169 0 1168 10 1055 -103 1158 -144 129 -470 241 -899 306 l-148 23 -2 755 c-3 728 -4 756 -23 795 -106 215 -569 375 -1310 451 -186 19 -955 28 -1145 13z m1070 -183 c601 -55 1046 -175 1193 -322 38 -39 46 -68 24 -97 -11 -16 -17 -15 -82 17 -259 127 -715 221 -1250 256 -195 13 -739 13 -925 0 -551 -38 -1007 -132 -1260 -260 -34 -17 -63 -30 -65 -28 -8 10 -25 48 -25 57 0 6 14 26 31 45 86 98 339 195 677 261 220 42 416 64 802 89 126 8 726 -4 880 -18z m-5 -330 c363 -34 662 -89 884 -162 74 -24 139 -48 144 -53 11 -11 -132 -63 -278 -102 -668 -178 -1754 -192 -2506 -33 -135 28 -287 72 -373 107 l-59 24 83 33 c242 93 685 171 1135 199 203 13 773 5 970 -13z m-2087 -446 c876 -287 2620 -239 3250 90 l72 37 0 -92 c0 -86 -2 -95 -29 -132 -16 -22 -61 -61 -99 -87 -447 -297 -1637 -415 -2587 -255 -365 61 -696 180 -826 296 -69 63 -79 86 -79 187 l0 85 91 -45 c49 -25 143 -63 207 -84z m-125 -411 c47 -22 137 -58 199 -79 l113 -39 3 -155 3 -156 -88 31 c-117 41 -267 119 -324 169 -68 58 -79 88 -79 219 l0 110 44 -29 c24 -16 82 -48 129 -71z m3447 -19 c0 -78 -4 -119 -15 -139 -38 -74 -209 -181 -392 -245 l-73 -26 0 158 0 157 78 23 c108 33 277 107 337 147 28 18 53 34 58 34 4 1 7 -49 7 -109z m-2756 -180 c94 -15 223 -34 286 -40 181 -18 160 5 160 -178 l0 -158 -122 13 c-141 14 -199 23 -390 59 l-138 26 0 160 c0 145 2 160 17 154 9 -4 93 -20 187 -36z m2096 -180 l0 -220 -139 0 c-129 0 -402 -14 -478 -24 l-33 -5 0 184 c0 184 0 185 23 189 12 2 105 14 207 26 141 16 394 58 418 69 1 0 2 -98 2 -219z m-820 -79 l0 -186 -157 -24 c-87 -13 -223 -39 -303 -58 -80 -19 -155 -37 -167 -40 l-23 -5 0 249 0 250 325 0 325 0 0 -186z m-1977 -31 c54 -27 150 -66 213 -87 l114 -37 0 -153 c0 -102 -4 -153 -11 -153 -5 0 -58 18 -116 40 -173 65 -283 135 -335 212 -27 39 -28 47 -28 155 l0 115 33 -22 c17 -12 76 -43 130 -70z m3455 -135 c-2 -1 -43 2 -93 6 -49 4 -144 11 -210 14 l-120 7 91 33 c110 40 223 92 284 132 l45 29 3 -109 c1 -60 1 -111 0 -112z m-2753 -70 c126 -22 383 -55 428 -55 14 0 17 -9 17 -45 l0 -44 -89 -46 c-54 -28 -112 -68 -146 -100 l-56 -54 -62 10 c-79 12 -211 38 -259 50 l-38 10 0 156 0 156 33 -7 c17 -4 95 -18 172 -31z m2605 -95 c635 -50 1132 -180 1278 -335 35 -37 40 -61 19 -89 -13 -17 -18 -16 -98 22 -239 114 -634 198 -1139 244 -223 20 -956 17 -1185 -5 -468 -46 -838 -127 -1072 -237 -93 -44 -113 -42 -113 9 0 32 51 85 125 129 221 132 742 239 1325 272 186 10 672 5 860 -10z m-3303 -198 c56 -28 152 -67 213 -87 l110 -37 0 -155 0 -154 -22 6 c-65 20 -223 86 -279 118 -81 45 -152 107 -173 151 -12 25 -16 63 -16 146 l0 111 33 -25 c17 -13 78 -47 134 -74z m3113 -122 c349 -18 667 -58 919 -114 100 -23 290 -81 356 -109 l29 -13 -74 -27 c-261 -97 -613 -164 -1050 -198 -202 -16 -782 -17 -980 -1 -440 36 -814 105 -1043 194 l-82 31 55 25 c83 36 269 87 441 121 418 81 952 115 1429 91z m-2372 -90 l72 -12 0 -159 0 -158 -32 5 c-18 3 -88 17 -155 30 -67 13 -125 24 -128 24 -3 0 -5 71 -5 159 l0 158 88 -17 c48 -10 120 -23 160 -30z m495 -355 c231 -83 574 -147 1002 -187 214 -20 952 -17 1177 5 490 46 915 144 1124 256 l74 40 0 -85 c0 -102 -9 -123 -83 -190 -155 -142 -548 -265 -1047 -328 -432 -55 -1087 -46 -1515 20 -468 72 -866 225 -954 367 -17 28 -21 50 -21 124 l0 90 74 -38 c41 -22 117 -55 169 -74z m-73 -428 c47 -22 135 -58 195 -78 l110 -38 3 -155 3 -156 -73 26 c-150 53 -277 122 -344 188 l-64 62 0 122 0 123 43 -26 c23 -15 80 -45 127 -68z m3450 -13 c0 -122 -11 -155 -70 -208 -71 -64 -255 -157 -397 -200 l-23 -7 0 154 0 155 123 42 c128 44 259 103 317 144 19 14 38 25 43 26 4 0 7 -48 7 -106z m-2565 -214 c94 -11 189 -23 213 -26 l42 -5 0 -160 0 -160 -42 5 c-24 3 -86 10 -138 16 -116 14 -311 46 -402 66 l-68 16 0 157 0 157 113 -23 c61 -12 189 -31 282 -43z m1902 -246 c-14 -14 -365 -72 -594 -99 l-53 -6 0 160 0 159 38 6 c20 3 64 8 97 11 99 10 334 45 425 63 l85 18 3 -154 c1 -85 1 -156 -1 -158z m-827 45 l0 -156 -82 -6 c-46 -4 -155 -7 -243 -7 -88 0 -197 3 -242 7 l-83 6 0 156 0 156 325 0 325 0 0 -156z m-1958 -69 c46 -21 134 -56 196 -77 l112 -38 0 -152 c0 -99 -4 -153 -10 -153 -19 0 -183 66 -256 103 -85 43 -168 107 -195 150 -16 27 -19 51 -19 149 l0 117 45 -30 c24 -16 81 -47 127 -69z m3424 -164 c-43 -73 -173 -155 -348 -220 -53 -20 -102 -36 -108 -36 -6 0 -10 53 -10 153 l0 152 78 23 c104 32 274 105 347 150 l60 38 3 -109 c2 -100 1 -112 -22 -151z m-2835 -15 c121 -25 272 -47 426 -63 l123 -12 0 -159 0 -160 -85 7 c-150 12 -529 75 -557 93 -8 4 -12 313 -5 313 2 0 46 -9 98 -19z m2197 -138 l-3 -158 -80 -17 c-112 -24 -384 -66 -482 -74 l-83 -7 0 160 0 160 83 7 c104 9 403 52 482 70 33 8 66 14 73 15 10 1 12 -34 10 -156z m-828 -113 l0 -160 -325 0 -325 0 0 160 0 160 325 0 325 0 0 -160z m-1965 -60 c55 -27 147 -65 205 -84 l105 -35 3 -155 3 -156 -88 31 c-169 60 -320 149 -367 218 -24 35 -26 45 -26 155 l0 118 33 -22 c17 -12 77 -43 132 -70z m3455 -15 c0 -67 -5 -118 -14 -138 -17 -42 -93 -109 -175 -154 -56 -32 -214 -98 -278 -118 l-23 -6 0 155 0 155 43 12 c100 29 297 112 362 153 39 24 73 45 78 45 4 1 7 -46 7 -104z m-2807 -179 c116 -22 248 -40 440 -61 l57 -6 0 -160 0 -160 -57 6 c-216 24 -386 50 -525 81 l-68 16 0 154 c0 99 4 154 10 154 6 0 70 -11 143 -24z m2147 -130 l0 -154 -67 -16 c-130 -29 -504 -85 -575 -86 -5 0 -8 72 -8 159 l0 160 58 6 c167 19 378 48 457 64 150 31 135 46 135 -133z m-830 -107 l0 -156 -61 -7 c-80 -8 -434 -8 -521 1 l-68 6 0 156 0 156 325 0 325 0 0 -156z"/>
<path d="M352 4107 c-33 -35 -30 -99 4 -126 60 -47 144 -10 144 64 0 76 -97 116 -148 62z"/>
<path d="M3502 4123 c-22 -9 -44 -63 -37 -94 12 -56 93 -89 136 -56 45 34 48 112 6 142 -21 14 -78 19 -105 8z"/>
<path d="M1115 3958 c-31 -18 -44 -40 -45 -74 0 -38 30 -79 64 -88 29 -7 74 8 92 32 19 25 17 86 -3 111 -21 26 -80 36 -108 19z"/>
<path d="M2749 3941 c-35 -35 -38 -77 -9 -114 42 -53 131 -38 148 25 25 95 -71 156 -139 89z"/>
<path d="M1944 3876 c-56 -25 -65 -108 -16 -146 36 -29 78 -26 113 9 36 36 38 79 7 115 -29 32 -64 39 -104 22z"/>
<path d="M1510 2130 c-27 -27 -35 -65 -20 -101 35 -84 164 -56 164 36 0 73 -94 115 -144 65z"/>
<path d="M4645 2125 c-56 -55 -16 -145 63 -145 52 0 82 32 82 87 0 33 -6 46 -26 62 -37 29 -89 27 -119 -4z"/>
<path d="M2269 1975 c-80 -44 -41 -165 52 -165 32 0 79 53 79 89 0 63 -76 107 -131 76z"/>
<path d="M3925 1979 c-32 -18 -45 -40 -45 -77 0 -45 13 -67 49 -82 61 -25 121 15 121 80 0 61 -74 108 -125 79z"/>
<path d="M3075 1875 c-53 -52 -14 -144 61 -145 82 -1 120 107 56 156 -29 23 -90 17 -117 -11z"/>
</g>
</svg>
