<?xml version="1.0" encoding="iso-8859-1"?>
<!-- Uploaded to: SVG Repo, www.svgrepo.com, Generator: SVG Repo Mixer Tools -->
<svg fill="#000000" height="800px" width="800px" version="1.1" id="Layer_1" xmlns="http://www.w3.org/2000/svg" xmlns:xlink="http://www.w3.org/1999/xlink" 
	 viewBox="0 0 512 512" xml:space="preserve">
<g>
	<g>
		<path d="M467.403,68.697C438.713,31.813,397.214,8.008,350.551,1.668c-46.668-6.343-93.01,5.528-130.508,33.416
			c-21.252,15.803-38.336,35.56-50.779,58.73c-3.351,6.25-6.349,12.743-8.905,19.29c-4.54,11.593-9.59,22.819-13.93,32.265
			c-40.952,89.027-91.483,182.015-122.882,226.129c-0.069,0.098-0.139,0.197-0.204,0.297
			c-10.684,15.006-16.516,33.433-16.429,51.938c0.091,19.286,6.309,37.633,17.979,53.056c14.297,18.902,35.103,31.103,58.583,34.355
			c4.133,0.572,8.26,0.856,12.361,0.855c18.963,0,37.332-6.055,52.788-17.562c15.309-8.676,224.383-127.393,285.621-173.73
			c38.39-29.042,62.993-71.322,69.281-119.052C509.811,153.935,496.983,106.716,467.403,68.697z M482.702,198.914
			c-5.547,42.115-27.257,79.42-61.13,105.045c-61.119,46.248-281.666,171.28-283.886,172.537c-0.404,0.229-0.792,0.484-1.161,0.765
			c-14.427,10.917-32.245,15.562-50.167,13.081c-17.922-2.483-33.803-11.794-44.715-26.222
			c-18.04-23.839-18.447-56.144-1.016-80.385c0.085-0.119,0.168-0.24,0.249-0.362c32.088-45.18,83.288-139.341,124.635-229.226
			c4.466-9.722,9.671-21.292,14.408-33.389c2.255-5.777,4.898-11.501,7.851-17.007c10.971-20.428,26.046-37.858,44.806-51.809
			c68.183-50.71,166.087-37.407,218.249,29.654c0,0,0.001,0,0.001,0.001C476.928,115.143,488.248,156.809,482.702,198.914z"/>
	</g>
</g>
<g>
	<g>
		<path d="M336.374,195.936c-4.111-5.022-8.716-9.664-13.69-13.798c0,0-0.001-0.001-0.002-0.001
			c-1.946-1.616-3.975-3.179-6.034-4.645c-4.727-3.363-11.281-2.258-14.646,2.467c-3.363,4.726-2.258,11.282,2.467,14.646
			c1.634,1.162,3.245,2.403,4.789,3.685c0,0,0,0,0.001,0.001c3.945,3.28,7.599,6.963,10.862,10.949
			c14.263,17.422,20.657,39.293,18.003,61.581c-2.656,22.305-13.982,42.053-31.892,55.605
			c-33.345,25.227-154.29,93.793-155.508,94.483c-0.405,0.229-0.794,0.485-1.165,0.766c-6.917,5.238-15.459,7.471-24.062,6.276
			c-8.599-1.191-16.218-5.66-21.453-12.583c-4.311-5.701-6.59-12.47-6.59-19.573c0-6.883,2.108-13.448,6.126-19.032
			c18.172-25.528,47.017-78.692,70.148-129.288c2.485-5.445,4.76-10.976,6.961-16.325l0.556-1.349
			c1.047-2.527,2.226-5.009,3.516-7.4c6.338-11.806,15.256-21.634,26.508-29.21c11.436-7.701,24.791-12.37,38.622-13.505
			c5.781-0.474,10.083-5.544,9.608-11.325c-0.474-5.78-5.539-10.086-11.325-9.608c-17.406,1.427-34.225,7.311-48.636,17.016
			c-14.114,9.505-25.313,21.853-33.272,36.68c-1.617,2.997-3.105,6.13-4.433,9.334l-0.567,1.377
			c-2.224,5.406-4.326,10.513-6.643,15.592c-22.279,48.734-50.942,101.655-68.121,125.789c-6.575,9.133-10.05,19.943-10.05,31.257
			c0,11.715,3.748,22.863,10.84,32.241c8.62,11.399,21.164,18.758,35.323,20.72c2.492,0.346,4.982,0.516,7.455,0.516
			c11.334,0,22.316-3.589,31.581-10.412c10.245-5.81,123.656-70.264,157.254-95.683c22.506-17.029,36.738-41.844,40.075-69.871
			C362.315,245.293,354.287,217.817,336.374,195.936z"/>
	</g>
</g>
<g>
	<g>
		<path d="M285.467,162.475c-1.316-0.379-2.651-0.735-3.97-1.059c-5.633-1.383-11.319,2.063-12.703,7.694
			c-1.382,5.632,2.063,11.32,7.697,12.702c1.048,0.257,2.112,0.542,3.16,0.843c0.972,0.28,1.95,0.414,2.913,0.414
			c4.561,0,8.759-2.995,10.086-7.596C294.256,169.901,291.04,164.081,285.467,162.475z"/>
	</g>
</g>
<g>
	<g>
		<path d="M254.911,276.525c-3.674-4.488-10.292-5.147-14.778-1.472c-4.487,3.674-5.147,10.291-1.472,14.778
			c3.828,4.674,5.542,10.537,4.831,16.51c-0.713,5.974-3.749,11.264-8.555,14.898c-9.425,7.134-42.08,26.026-53.867,32.704
			c-0.404,0.228-0.792,0.483-1.16,0.763c-1.322,1.001-2.701,0.986-3.406,0.886c-0.705-0.098-2.035-0.46-3.035-1.783
			c-0.775-1.027-0.939-2.071-0.939-2.766c0-0.966,0.304-1.921,0.887-2.731c6.587-9.255,16.983-28.392,25.278-46.53
			c0.967-2.111,1.821-4.198,2.647-6.217l0.084-0.205c0.285-0.684,0.604-1.356,0.944-1.998c1.704-3.166,4.103-5.806,7.126-7.846
			c4.809-3.243,6.077-9.771,2.833-14.578c-3.243-4.81-9.77-6.076-14.578-2.834c-5.789,3.906-10.587,9.195-13.905,15.356
			c-0.671,1.264-1.28,2.552-1.834,3.883l-0.109,0.265c-0.78,1.906-1.516,3.706-2.308,5.431c-8.707,19.04-18.308,36.09-23.26,43.045
			c-3.103,4.311-4.812,9.623-4.812,14.957c0,5.603,1.792,10.937,5.18,15.424c4.123,5.461,10.126,8.987,16.903,9.929
			c1.197,0.167,2.392,0.249,3.58,0.249c5.28,0,10.403-1.629,14.764-4.729c5.234-2.973,43.799-24.953,55.653-33.925
			c9.399-7.105,15.344-17.461,16.74-29.161C265.741,297.131,262.391,285.658,254.911,276.525z"/>
	</g>
</g>
</svg>