<?xml version="1.0" encoding="iso-8859-1"?>
<!-- Uploaded to: SVG Repo, www.svgrepo.com, Generator: SVG Repo Mixer Tools -->
<svg fill="#000000" version="1.1" id="Layer_1" xmlns="http://www.w3.org/2000/svg" xmlns:xlink="http://www.w3.org/1999/xlink" 
	 viewBox="0 0 496 496" xml:space="preserve">
<g>
	<g>
		<g>
			<rect x="480" y="480" width="16" height="16"/>
			<path d="M496,176v-16H336v16h16v72h-16v16h16v72h-24.8L296.888,48H312V0h-96v48h15.112L200.8,336h-13.08L63.664,188.68
				C61.976,172.608,48.512,160,32,160c-17.648,0-32,14.352-32,32c0,14.872,10.232,27.288,24,30.864V480H0v16h464v-16h-16v-80h48v-64
				h-16v-72h16v-16h-16v-72H496z M368,176h96v72h-96V176z M368,264h96v72h-96V264z M310.624,331.312L243.312,264h60.224
				L310.624,331.312z M301.096,240.816L249.96,184h45.152L301.096,240.816z M242.992,88l4.208-40h33.6l4.208,40H242.992z
				 M286.696,104l5.544,52.68L255.368,104H286.696z M280.632,168h-46.064l6.024-57.208L280.632,168z M232,16h64v16h-0.8h-62.4H232
				V16z M232.424,188.424L286.04,248h-59.888L232.424,188.424z M224.104,267.416L292.688,336H216.88L224.104,267.416z M166.8,336
				h-34.592l-11-16h32.12L166.8,336z M115.968,275.632L139.856,304h-29.648l-3.536-5.144L115.968,275.632z M104.288,261.752
				l-8.504,21.256l-29.08-42.296l31.08,13.32L104.288,261.752z M59.344,208.384l15.512,18.424l-23.04-9.872
				C54.808,214.544,57.36,211.68,59.344,208.384z M16,192c0-8.824,7.176-16,16-16s16,7.176,16,16c0,8.824-7.176,16-16,16
				S16,200.824,16,192z M104,480H40V230.12l48.64,70.744l-0.064,0.168l0.248,0.096L112.792,336H56v64h48V480z M184,448h-8v16h8v16
				h-64v-16h40v-16h-40v-48h64V448z M352,480H200v-80h152V480z M432,448h-8v16h8v16h-64v-16h40v-16h-40v-48h64V448z M480,384H72v-32
				h127.12h129.76H480V384z"/>
			<rect x="384" y="192" width="16" height="16"/>
			<rect x="416" y="192" width="16" height="16"/>
			<rect x="432" y="304" width="16" height="16"/>
			<rect x="400" y="304" width="16" height="16"/>
		</g>
	</g>
</g>
</svg>