<?xml version="1.0" standalone="no"?>
<!DOCTYPE svg PUBLIC "-//W3C//DTD SVG 20010904//EN"
 "http://www.w3.org/TR/2001/REC-SVG-20010904/DTD/svg10.dtd">
<svg version="1.0" xmlns="http://www.w3.org/2000/svg"
 width="1024.000000pt" height="1024.000000pt" viewBox="0 0 1024.000000 1024.000000"
 preserveAspectRatio="xMidYMid meet">

<g transform="translate(0.000000,1024.000000) scale(0.100000,-0.100000)"
fill="#000000" stroke="none">
<path d="M1662 8683 c-33 -16 -58 -51 -62 -88 -5 -46 2 -67 34 -103 l34 -37
431 -3 430 -3 3 -235 3 -236 33 -29 c38 -34 94 -39 143 -13 53 27 59 59 59
299 l0 215 2330 0 2330 0 0 -248 c0 -271 1 -277 60 -307 36 -19 73 -19 109 -1
55 29 56 30 61 300 l5 251 425 5 c462 5 455 5 490 63 37 59 21 124 -39 164
l-34 23 -3406 0 c-3125 0 -3409 -2 -3439 -17z"/>
<path d="M4878 8168 c-29 -24 -159 -227 -184 -289 -31 -75 -40 -165 -25 -244
6 -35 39 -118 78 -199 107 -223 102 -266 -51 -433 -130 -141 -166 -218 -166
-354 0 -138 46 -258 178 -459 41 -63 80 -130 85 -147 16 -52 -7 -133 -60 -211
-25 -37 -61 -89 -78 -115 -18 -26 -40 -75 -49 -107 l-17 -59 51 -63 c74 -91
98 -138 122 -230 24 -98 21 -249 -7 -364 l-18 -71 38 -61 c37 -60 38 -64 32
-135 -3 -39 -12 -100 -21 -134 l-16 -62 49 -62 c106 -132 146 -246 139 -399
-5 -93 -16 -136 -83 -311 l-18 -46 40 -59 c59 -86 101 -175 118 -246 16 -69
18 -475 6 -1038 -3 -157 -5 -286 -4 -288 2 -5 191 46 209 56 12 7 15 106 17
653 4 790 2 777 139 997 l46 73 -25 77 c-33 104 -41 232 -20 315 9 34 21 101
27 150 15 118 41 197 95 289 l46 77 1 98 c0 154 -26 223 -132 353 -72 88 -90
125 -90 190 0 64 19 114 94 244 136 237 166 317 166 436 0 140 -42 229 -169
364 -168 178 -177 240 -73 462 90 190 106 266 78 370 -23 88 -66 151 -189 282
-137 146 -207 241 -239 321 -20 49 -23 74 -23 202 0 130 -2 149 -19 168 -21
24 -54 27 -78 9z m217 -834 c34 -71 47 -167 36 -249 -5 -36 -31 -127 -56 -202
-41 -117 -48 -150 -53 -239 -6 -127 6 -195 60 -322 22 -53 57 -142 76 -197 34
-94 37 -107 36 -220 0 -117 -1 -125 -59 -315 -57 -191 -58 -198 -58 -315 -1
-129 -6 -103 92 -408 77 -238 78 -332 10 -632 l-44 -190 0 -247 c0 -135 -3
-241 -7 -235 -13 20 -66 189 -80 252 -22 102 -15 301 16 454 59 290 55 354
-38 633 -71 212 -92 318 -81 416 8 75 41 216 85 363 39 130 48 246 27 344 -8
39 -41 130 -71 202 -71 166 -96 262 -96 366 0 98 18 174 76 321 25 61 52 138
60 171 22 84 19 222 -6 312 -11 40 -20 76 -20 80 0 15 71 -92 95 -143z"/>
<path d="M6997 7807 c-35 -34 -61 -167 -61 -307 0 -122 11 -167 90 -350 20
-47 29 -87 32 -141 5 -94 -8 -122 -111 -246 -143 -173 -177 -242 -177 -361 0
-115 26 -183 154 -397 66 -111 71 -123 70 -175 -1 -72 -30 -130 -131 -263
-177 -236 -194 -361 -84 -620 63 -149 76 -195 76 -277 0 -106 -22 -144 -172
-301 -137 -144 -163 -186 -189 -311 -13 -60 -15 -102 -8 -233 28 -513 -1 -608
-322 -1073 -76 -111 -169 -250 -207 -310 -68 -108 -167 -292 -167 -310 0 -5
25 -13 56 -17 31 -4 76 -12 99 -19 l42 -13 69 116 c38 64 122 195 187 291 65
96 170 252 232 345 118 177 148 211 342 377 218 187 287 306 304 530 12 165
25 188 206 362 162 157 227 239 279 351 69 149 59 275 -38 462 -70 136 -91
208 -82 278 9 73 23 102 130 261 148 224 191 337 181 486 -7 105 -39 172 -127
264 -141 149 -155 208 -95 392 87 261 87 384 3 562 -37 78 -52 97 -183 225
-151 149 -177 182 -244 312 -68 132 -106 159 -154 110z m313 -654 c18 -20 45
-62 59 -93 24 -50 26 -66 25 -175 0 -117 -1 -123 -49 -255 -43 -121 -48 -146
-52 -240 -5 -114 1 -140 81 -365 61 -171 68 -296 25 -433 -11 -34 -49 -129
-86 -210 -109 -243 -122 -330 -83 -567 36 -220 19 -372 -60 -524 -37 -72 -73
-119 -235 -316 -87 -105 -125 -175 -190 -347 -57 -151 -61 -153 -45 -18 25
199 85 336 230 520 143 181 199 318 200 481 0 36 -12 133 -26 215 -42 240 -30
313 97 609 87 204 103 265 97 375 -5 85 -19 134 -103 360 -22 59 -29 97 -32
175 -4 109 -12 79 91 363 15 40 32 108 38 151 18 118 3 193 -69 360 -10 22 49
-22 87 -66z"/>
<path d="M2624 7682 c-24 -16 -32 -53 -39 -192 -12 -254 -38 -347 -145 -520
-71 -116 -99 -189 -107 -279 -8 -97 15 -169 117 -367 89 -172 90 -174 90 -246
0 -81 -25 -148 -101 -265 -97 -149 -110 -271 -47 -440 27 -75 99 -180 216
-318 199 -234 211 -296 103 -542 -60 -137 -51 -254 29 -378 51 -78 117 -142
265 -258 78 -60 130 -109 147 -138 26 -42 28 -52 31 -189 6 -230 36 -282 259
-452 65 -49 136 -111 158 -136 22 -26 79 -121 126 -212 48 -91 143 -267 213
-392 l126 -227 123 -3 c67 -2 122 -1 122 1 0 10 -94 173 -185 321 -350 568
-393 691 -365 1050 15 195 6 278 -44 410 -36 97 -78 165 -166 265 -33 39 -73
95 -88 125 -24 49 -27 66 -27 160 0 97 3 115 44 235 66 198 67 312 3 443 -20
42 -62 91 -158 187 -139 138 -165 178 -172 260 -4 52 5 85 82 300 92 258 64
391 -123 590 -56 59 -111 126 -122 148 -31 61 -34 128 -10 244 11 56 21 131
21 166 0 133 -59 287 -183 480 -95 147 -152 197 -193 169z m96 -794 c-34 -164
-14 -267 86 -435 164 -277 185 -405 115 -682 -71 -278 -54 -364 138 -685 79
-133 106 -196 129 -306 13 -65 13 -95 3 -220 -22 -251 4 -339 169 -570 92
-129 141 -225 164 -320 18 -77 36 -193 35 -235 -1 -27 -2 -26 -16 15 -85 247
-113 301 -240 453 -213 254 -249 357 -238 667 7 170 6 177 -19 255 -16 52 -57
132 -112 225 -48 80 -97 168 -110 195 -79 179 -86 305 -29 533 57 231 47 366
-37 522 -113 207 -136 258 -148 330 -17 100 -3 159 67 298 68 132 77 123 43
-40z"/>
<path d="M4060 6540 c-18 -18 -20 -33 -20 -133 0 -171 -13 -201 -195 -460 -70
-99 -89 -162 -83 -276 6 -107 25 -155 128 -316 81 -126 100 -168 100 -219 0
-46 -40 -121 -109 -206 -34 -41 -76 -104 -94 -140 -30 -61 -32 -71 -31 -170 0
-89 4 -115 27 -174 36 -91 100 -185 198 -291 49 -53 91 -109 107 -143 24 -52
25 -61 15 -118 -6 -34 -31 -107 -57 -162 -74 -162 -78 -260 -16 -385 39 -79
135 -212 229 -319 139 -156 220 -303 291 -523 42 -131 68 -245 83 -358 l13
-92 94 -27 c52 -15 101 -28 108 -28 34 0 -26 286 -122 577 -42 127 -76 247
-76 266 0 19 14 77 31 128 38 117 36 154 -17 269 -36 78 -39 92 -39 170 0 79
3 93 49 200 107 253 118 285 123 339 11 114 -36 236 -132 351 -141 169 -175
232 -175 324 0 49 12 88 90 301 29 78 33 103 34 190 1 90 -2 106 -27 160 -33
71 -56 97 -162 180 -204 160 -249 257 -191 415 13 36 33 90 45 121 52 142 45
252 -24 390 -45 89 -87 145 -126 164 -37 20 -45 19 -69 -5z m-42 -856 c15 -99
53 -174 158 -314 47 -63 94 -131 104 -150 44 -86 63 -213 46 -300 -4 -19 -25
-90 -47 -157 -33 -105 -39 -135 -39 -212 0 -108 15 -154 95 -291 157 -268 174
-360 122 -681 -15 -91 -27 -197 -27 -235 0 -71 14 -187 26 -219 6 -13 4 -16
-6 -10 -24 15 -79 151 -95 240 -17 91 -17 126 1 406 11 165 -18 252 -160 474
-117 183 -123 287 -35 545 49 143 53 162 53 245 0 109 -17 156 -110 301 -90
142 -124 230 -124 325 0 54 10 109 19 109 4 0 12 -34 19 -76z"/>
<path d="M6267 6218 c-9 -5 -43 -64 -76 -131 -33 -67 -93 -170 -135 -229 -149
-210 -181 -291 -180 -453 1 -116 -2 -105 85 -340 22 -59 23 -106 5 -158 -21
-57 -53 -99 -190 -244 -133 -142 -175 -208 -197 -311 -15 -76 -6 -234 21 -342
24 -94 28 -194 11 -258 -7 -23 -39 -77 -72 -121 -107 -142 -126 -217 -113
-434 20 -340 12 -414 -92 -869 -30 -131 -54 -245 -54 -254 0 -11 5 -14 18 -9
14 5 136 40 178 50 6 2 17 32 23 67 23 119 113 493 138 573 39 124 106 245
181 326 36 39 125 115 197 169 321 240 375 390 253 694 -54 133 -60 203 -26
277 14 30 66 105 116 168 145 182 201 322 188 476 -7 92 -28 150 -120 330 -42
83 -84 179 -93 215 -20 83 -13 279 16 434 32 168 25 311 -16 358 -19 21 -46
28 -66 16z m-122 -906 c8 -32 29 -92 46 -133 84 -201 100 -288 76 -405 -18
-84 -45 -141 -140 -289 -138 -217 -150 -262 -142 -525 6 -162 4 -209 -10 -275
-31 -147 -105 -284 -215 -400 -32 -33 -77 -91 -99 -130 -90 -153 -19 68 78
246 39 71 83 164 99 206 27 78 27 79 24 316 -3 328 12 386 162 611 88 133 109
173 131 250 25 85 16 202 -25 341 -38 132 -50 268 -29 360 l13 60 8 -88 c4
-48 14 -114 23 -145z"/>
<path d="M2535 2734 c-11 -3 -46 -12 -78 -19 -31 -8 -105 -35 -162 -60 -197
-86 -330 -95 -503 -36 -104 36 -135 35 -176 -6 -37 -36 -44 -89 -19 -133 15
-26 40 -45 94 -73 102 -51 205 -71 339 -64 125 7 187 22 324 82 126 55 208 75
306 75 98 0 174 -19 285 -70 115 -54 215 -79 341 -87 84 -5 106 -3 138 12 88
42 102 151 26 207 -19 14 -50 20 -125 24 -138 7 -183 18 -299 68 -56 24 -128
52 -161 61 -59 16 -289 29 -330 19z"/>
<path d="M7413 2726 c-34 -8 -102 -31 -150 -51 -226 -95 -314 -110 -465 -80
-82 16 -88 16 -123 0 -47 -23 -69 -65 -62 -119 11 -79 94 -121 262 -133 143
-9 250 13 418 88 212 95 381 93 596 -7 224 -104 464 -111 658 -19 107 50 139
117 93 192 -27 46 -80 60 -140 38 -211 -77 -336 -73 -553 20 -56 24 -129 51
-162 60 -83 23 -292 29 -372 11z"/>
<path d="M2475 2032 c-38 -10 -108 -35 -155 -56 -237 -105 -366 -117 -536 -50
-33 13 -73 24 -88 24 -69 0 -124 -67 -111 -136 9 -49 72 -98 164 -128 209 -69
373 -57 592 45 138 63 202 79 319 79 121 0 185 -17 324 -84 61 -30 141 -63
179 -75 205 -63 438 -41 637 59 247 124 428 129 668 17 145 -69 231 -94 350
-106 174 -18 321 10 502 94 148 69 209 85 336 85 129 0 216 -22 371 -93 116
-54 230 -93 348 -119 82 -18 420 -17 500 1 109 24 249 73 337 117 160 80 225
98 368 98 136 0 160 -6 382 -99 125 -51 213 -68 328 -62 152 8 327 75 360 138
19 34 6 107 -22 136 -38 38 -91 40 -167 9 -142 -60 -281 -57 -442 11 -176 74
-243 94 -346 106 -186 20 -319 -8 -544 -117 -159 -77 -277 -107 -451 -113
-219 -9 -354 19 -570 118 -316 144 -575 146 -868 5 -108 -52 -214 -76 -329
-76 -133 0 -210 19 -358 88 -185 86 -330 113 -496 92 -111 -14 -227 -50 -337
-105 -110 -56 -176 -75 -280 -82 -122 -7 -207 14 -370 91 -185 89 -218 98
-385 102 -111 3 -154 0 -210 -14z"/>
</g>
</svg>
