<?xml version="1.0" standalone="no"?>
<!DOCTYPE svg PUBLIC "-//W3C//DTD SVG 20010904//EN"
 "http://www.w3.org/TR/2001/REC-SVG-20010904/DTD/svg10.dtd">
<svg version="1.0" xmlns="http://www.w3.org/2000/svg"
 width="811.000000pt" height="681.000000pt" viewBox="0 0 811.000000 681.000000"
 preserveAspectRatio="xMidYMid meet">

<g transform="translate(0.000000,681.000000) scale(0.100000,-0.100000)"
fill="#000000" stroke="none">
<path d="M1330 6534 c-102 -35 -188 -95 -328 -229 -131 -124 -168 -148 -258
-164 -101 -19 -180 10 -307 111 -57 44 -103 50 -154 18 -82 -50 -83 -141 -1
-216 219 -200 500 -228 735 -71 37 25 122 96 188 158 145 136 188 159 296 159
104 0 166 -32 295 -153 125 -116 163 -146 244 -190 103 -57 205 -81 340 -80
240 0 365 58 597 275 130 123 171 143 283 143 114 0 152 -20 295 -155 62 -59
132 -121 156 -137 130 -89 251 -125 424 -126 133 -1 208 14 312 63 89 41 133
74 263 195 142 133 202 165 306 165 99 0 166 -35 292 -153 121 -115 160 -145
243 -191 96 -53 202 -78 334 -79 229 -2 365 59 576 259 144 136 205 169 310
168 102 0 156 -32 314 -184 143 -136 220 -186 331 -215 78 -20 129 -19 205 5
73 22 195 99 252 158 67 69 56 152 -25 202 -52 32 -77 26 -168 -40 -171 -123
-239 -110 -438 84 -198 192 -276 235 -449 244 -180 8 -286 -40 -483 -223 -66
-61 -144 -125 -173 -143 -142 -85 -367 -83 -507 6 -25 16 -98 78 -162 138
-190 180 -299 230 -481 222 -167 -7 -254 -53 -448 -236 -64 -60 -136 -121
-160 -135 -63 -37 -150 -57 -249 -57 -166 0 -244 38 -413 198 -195 186 -287
232 -461 232 -167 -1 -276 -54 -452 -222 -186 -178 -265 -214 -454 -206 -101
4 -115 7 -183 41 -54 27 -104 64 -177 133 -216 201 -319 254 -500 254 -65 0
-103 -7 -160 -26z"/>
<path d="M353 5491 c-80 -37 -74 149 -70 -1993 l2 -1913 27 -105 c36 -146 62
-218 124 -348 188 -396 516 -697 932 -856 113 -43 284 -82 426 -95 129 -13
1251 -14 1221 -1 -11 4 -65 16 -120 25 -168 29 -701 135 -855 170 -80 18 -181
38 -225 45 -336 49 -627 188 -853 404 -269 258 -432 623 -432 968 l0 98 418 0
418 0 52 118 c29 64 56 123 59 129 4 10 -94 13 -471 13 l-476 0 0 465 0 465
570 0 570 0 2 -312 3 -312 123 157 122 156 0 156 0 155 150 0 151 0 104 90
c57 49 127 106 155 127 l51 38 -306 3 -305 2 0 505 0 505 595 0 595 0 0 -320
0 -320 123 65 122 64 3 256 2 255 710 0 710 0 0 -104 0 -103 112 -8 c61 -4
117 -9 125 -12 10 -4 13 18 13 111 l0 116 595 0 595 0 0 -371 0 -371 51 -56
c100 -110 231 -295 294 -414 l30 -58 508 0 507 0 0 -465 0 -465 -399 0 -400 0
-6 -58 c-8 -72 -24 -169 -32 -188 -4 -12 54 -14 417 -14 l423 0 -6 -138 c-8
-196 -54 -367 -148 -554 -133 -263 -389 -510 -660 -637 -84 -39 -233 -93 -296
-106 l-33 -7 0 388 0 388 -82 -81 c-46 -44 -102 -92 -125 -108 l-43 -28 0
-293 0 -294 -554 0 -554 0 -166 -46 c-147 -40 -485 -120 -708 -169 -43 -9 -78
-21 -78 -26 0 -13 2069 -12 2201 2 341 34 641 163 915 391 290 241 500 607
564 982 20 115 20 159 20 1986 l0 1867 -23 34 c-12 19 -38 42 -57 51 -33 17
-231 18 -3710 18 -3589 0 -3676 -1 -3717 -19z m1317 -571 l0 -330 -570 -2
-570 -3 0 333 0 332 570 0 570 0 0 -330z m1440 0 l0 -330 -595 0 -595 0 0 330
0 330 595 0 595 0 0 -330z m1670 0 l0 -330 -710 0 -710 0 0 330 0 330 710 0
710 0 0 -330z m1440 0 l0 -330 -595 0 -595 0 0 330 0 330 595 0 595 0 0 -330z
m1390 0 l0 -330 -570 0 -570 0 0 330 0 330 570 0 570 0 0 -330z m-5940 -1075
l0 -505 -570 0 -570 0 0 500 0 500 253 3 c138 1 395 3 570 5 l317 2 0 -505z
m5940 0 l0 -505 -570 0 -570 0 0 500 0 499 153 3 c83 2 340 4 570 6 l417 3 0
-506z"/>
<path d="M4510 3839 c-250 -27 -586 -100 -800 -174 -211 -73 -547 -249 -810
-425 -584 -391 -1110 -998 -1295 -1495 -33 -87 -105 -351 -105 -380 0 -5 42
71 93 170 140 270 259 454 444 685 534 667 1237 1091 1938 1170 118 13 410 13
533 -1 574 -62 1053 -360 1263 -784 73 -150 100 -266 106 -455 9 -294 -58
-522 -228 -770 -280 -410 -860 -754 -1468 -871 -58 -11 -119 -22 -134 -25 -16
-3 -26 -8 -24 -10 3 -3 60 5 128 16 1042 178 1820 524 2139 953 111 149 187
324 227 523 27 138 25 415 -5 561 -66 326 -217 609 -446 839 -254 253 -553
398 -946 459 -125 20 -486 28 -610 14z"/>
<path d="M4060 3183 c-479 -46 -934 -241 -1354 -579 -118 -95 -306 -277 -403
-390 -86 -102 -215 -274 -205 -274 5 0 17 9 27 20 31 34 203 163 312 234 473
306 1000 419 1480 315 425 -92 730 -341 814 -666 37 -143 24 -327 -32 -479
-83 -220 -279 -437 -553 -608 -49 -31 -82 -56 -73 -56 37 0 331 81 452 125
147 53 339 146 465 224 246 153 457 372 567 590 43 84 90 230 104 323 19 119
7 307 -26 408 -161 503 -713 826 -1400 818 -77 0 -156 -3 -175 -5z"/>
<path d="M3405 2329 c-447 -47 -895 -275 -1306 -667 -227 -216 -429 -510 -445
-649 -16 -129 67 -246 229 -324 333 -159 1162 -122 1777 80 387 128 686 353
818 617 93 186 85 396 -22 557 -46 69 -164 180 -239 225 -222 133 -518 192
-812 161z"/>
</g>
</svg>
