<?xml version="1.0" standalone="no"?>
<!DOCTYPE svg PUBLIC "-//W3C//DTD SVG 20010904//EN"
 "http://www.w3.org/TR/2001/REC-SVG-20010904/DTD/svg10.dtd">
<svg version="1.0" xmlns="http://www.w3.org/2000/svg"
 width="789.000000pt" height="516.000000pt" viewBox="0 0 789.000000 516.000000"
 preserveAspectRatio="xMidYMid meet">

<g transform="translate(0.000000,516.000000) scale(0.100000,-0.100000)"
fill="#000000" stroke="none">
<path d="M1385 4908 c-16 -6 -43 -22 -59 -37 -53 -48 -56 -67 -56 -355 l0
-265 -148 -3 c-146 -3 -149 -3 -186 -32 -21 -16 -44 -43 -51 -60 -7 -17 -45
-229 -84 -471 -40 -242 -82 -501 -95 -575 l-22 -135 -129 -5 c-106 -4 -137 -9
-170 -26 -46 -24 -77 -70 -78 -117 0 -39 406 -1309 434 -1354 33 -54 108 -112
164 -128 44 -13 284 -15 1885 -13 l1835 3 45 24 c47 24 332 300 541 523 l119
127 0 51 c0 43 -5 55 -32 84 -47 49 -1104 761 -1188 800 -42 19 -66 21 -317
24 l-271 3 -4 172 c-3 154 -5 176 -25 212 -56 103 -494 785 -529 823 -63 68
-78 71 -421 72 l-303 0 0 265 c0 202 -3 273 -14 298 -17 42 -66 83 -114 97
-50 13 -687 12 -727 -2z m545 -473 l0 -185 -180 0 -180 0 0 185 0 185 180 0
180 0 0 -185z m1059 -836 l221 -351 0 -139 0 -139 -1110 0 c-904 0 -1110 2
-1110 13 0 7 31 206 69 442 38 237 73 451 76 478 l7 47 813 0 813 0 221 -351z"/>
<path d="M4753 3906 c-35 -30 -440 -602 -479 -677 -21 -42 -18 -115 7 -156 24
-38 84 -73 127 -73 21 0 89 -39 233 -134 185 -122 206 -139 229 -183 32 -61
79 -93 136 -93 38 0 58 -10 161 -82 64 -45 142 -92 173 -104 111 -45 235 -173
300 -309 127 -266 152 -724 69 -1290 -35 -238 -35 -258 -8 -296 53 -75 169
-80 241 -12 36 35 45 64 62 213 12 106 17 127 36 142 30 24 54 23 85 -4 24
-22 27 -37 59 -285 20 -152 41 -274 50 -291 33 -63 119 -112 197 -112 81 0
169 52 205 121 65 127 -86 923 -262 1370 -144 367 -401 707 -644 851 l-56 33
87 125 c159 225 193 323 155 437 -23 67 -55 101 -181 187 -97 67 -114 83 -140
133 -39 74 -71 97 -138 99 -50 2 -66 11 -262 139 -187 121 -211 140 -223 172
-23 68 -72 103 -146 103 -33 0 -52 -6 -73 -24z m305 -482 c103 -70 189 -128
191 -130 2 -1 -50 -80 -115 -174 -74 -107 -123 -169 -131 -166 -30 12 -373
248 -373 257 0 6 32 56 72 112 39 56 91 130 115 165 24 34 46 62 49 62 3 0 90
-57 192 -126z m522 -344 c50 -33 90 -65 90 -71 0 -21 -68 -118 -236 -338 -9
-11 -27 -3 -105 49 -52 35 -95 64 -97 65 -5 4 242 355 250 355 5 0 49 -27 98
-60z"/>
<path d="M6314 3421 c-25 -15 -138 -179 -197 -287 -3 -5 -2 -37 2 -70 19 -133
-29 -276 -132 -394 -32 -36 -57 -68 -57 -71 0 -4 118 -73 263 -155 241 -136
264 -151 282 -188 11 -22 33 -49 48 -60 39 -29 112 -28 152 1 30 21 189 269
366 567 91 155 103 198 74 259 -26 55 -74 81 -138 74 -51 -5 -56 -3 -251 101
-152 82 -200 113 -207 132 -19 51 -35 74 -64 92 -39 23 -102 23 -141 -1z m269
-442 c100 -55 186 -104 191 -109 8 -8 -180 -340 -194 -340 -4 0 -91 48 -193
106 l-186 106 27 47 c15 26 59 102 97 169 39 67 71 122 73 122 2 0 85 -45 185
-101z"/>
<path d="M7154 2297 c-226 -153 -570 -407 -585 -432 -25 -39 -24 -111 0 -151
17 -27 73 -64 99 -64 5 0 75 -91 155 -202 140 -196 145 -205 149 -261 5 -62
27 -95 82 -124 61 -32 87 -19 384 193 152 109 295 211 317 226 66 46 88 100
71 174 -9 39 -55 84 -94 93 -25 5 -60 44 -190 214 -116 150 -159 213 -155 227
8 29 -32 103 -66 123 -48 28 -111 22 -167 -16z m182 -494 c76 -98 139 -181
139 -184 0 -4 -45 -40 -100 -79 -55 -40 -121 -88 -146 -106 l-47 -34 -131 176
c-73 96 -134 181 -137 189 -4 8 44 49 133 114 76 55 140 100 144 101 3 0 68
-80 145 -177z"/>
<path d="M7463 1008 c-33 -16 -46 -69 -41 -162 10 -147 44 -212 126 -237 118
-35 241 87 210 208 -28 113 -213 233 -295 191z"/>
<path d="M6927 798 c-40 -30 -72 -362 -48 -481 22 -105 105 -170 216 -170 159
0 260 143 215 305 -15 52 -77 141 -157 224 -116 121 -180 155 -226 122z"/>
</g>
</svg>
